<svg width="48" height="49" viewBox="0 0 48 49" fill="none" xmlns="http://www.w3.org/2000/svg">
    <g clip-path="url(#clip0_417_222)">
        <path d="M31.6 33.2398L25.3 26.9398C24.8 27.3398 24.225 27.6565 23.575 27.8898C22.925 28.1232 22.2333 28.2398 21.5 28.2398C19.6833 28.2398 18.1458 27.6107 16.8875 26.3523C15.6292 25.094 15 23.5565 15 21.7398C15 19.9232 15.6292 18.3857 16.8875 17.1273C18.1458 15.869 19.6833 15.2398 21.5 15.2398C23.3167 15.2398 24.8542 15.869 26.1125 17.1273C27.3708 18.3857 28 19.9232 28 21.7398C28 22.4732 27.8833 23.1648 27.65 23.8148C27.4167 24.4648 27.1 25.0398 26.7 25.5398L33 31.8398L31.6 33.2398ZM21.5 26.2398C22.75 26.2398 23.8125 25.8023 24.6875 24.9273C25.5625 24.0523 26 22.9898 26 21.7398C26 20.4898 25.5625 19.4273 24.6875 18.5523C23.8125 17.6773 22.75 17.2398 21.5 17.2398C20.25 17.2398 19.1875 17.6773 18.3125 18.5523C17.4375 19.4273 17 20.4898 17 21.7398C17 22.9898 17.4375 24.0523 18.3125 24.9273C19.1875 25.8023 20.25 26.2398 21.5 26.2398Z" fill="#5E4C3E"/>
    </g>
    <defs>
        <clipPath id="clip0_417_222">
            <rect x="4" y="4.23982" width="40" height="40" rx="20" fill="white"/>
        </clipPath>
    </defs>
</svg>
