<svg width="25" height="25" viewBox="0 0 25 25" fill="none" xmlns="http://www.w3.org/2000/svg">
<path d="M12.5 3.5C7 3.5 2.5 7.08 2.5 11.5C2.52525 12.5627 2.78483 13.6067 3.2602 14.5574C3.73557 15.5081 4.41501 16.3422 5.25 17C5.25 17.6 4.83 19.17 2.5 21.5C4.87 21.39 7.14 20.5 8.97 19C10.11 19.33 11.31 19.5 12.5 19.5C18 19.5 22.5 15.92 22.5 11.5C22.5 7.08 18 3.5 12.5 3.5ZM12.5 17.5C8.08 17.5 4.5 14.81 4.5 11.5C4.5 8.19 8.08 5.5 12.5 5.5C16.92 5.5 20.5 8.19 20.5 11.5C20.5 14.81 16.92 17.5 12.5 17.5Z" fill="#F2EAD3"/>
</svg>
