<svg width="28" height="24" viewBox="0 0 28 24" fill="none" xmlns="http://www.w3.org/2000/svg">
<path d="M23.8083 12.5H20.5316C19.8684 12.5 19.5368 12.5 19.2813 12.675C19.0258 12.8501 18.9061 13.1593 18.6666 13.7778L18.4945 14.2222C18.255 14.8407 18.1352 15.1499 17.8798 15.325C17.6243 15.5 17.2927 15.5 16.6294 15.5H11.2379C10.5747 15.5 10.2431 15.5 9.98759 15.325C9.7321 15.1499 9.61235 14.8407 9.37286 14.2222L9.20075 13.7778C8.96126 13.1593 8.84151 12.8501 8.58602 12.675C8.33053 12.5 7.99892 12.5 7.33571 12.5H4.05908" stroke="#F2EAD3"/>
<path d="M11.0293 9.5L13.9336 12M13.9336 12L16.8379 9.5M13.9336 12L13.9336 5" stroke="#F2EAD3"/>
<path d="M7.54423 8.5L5.50562 9.66989C4.97872 9.97225 4.71527 10.1234 4.52363 10.3355C4.35407 10.5231 4.22595 10.7444 4.14762 10.9848C4.05908 11.2566 4.05908 11.5603 4.05908 12.1678V15.62C4.05908 16.6281 4.05908 17.1321 4.25527 17.5172C4.42784 17.8559 4.70321 18.1312 5.0419 18.3038C5.42694 18.5 5.93099 18.5 6.93909 18.5H20.9283C21.9364 18.5 22.4404 18.5 22.8254 18.3038C23.1641 18.1312 23.4395 17.8559 23.6121 17.5172C23.8083 17.1321 23.8083 16.6281 23.8083 15.62V12.1678C23.8083 11.5603 23.8083 11.2566 23.7197 10.9848C23.6414 10.7444 23.5133 10.5231 23.3437 10.3355C23.1521 10.1234 22.8886 9.97225 22.3617 9.66989L20.3231 8.5" stroke="#F2EAD3" stroke-linecap="round"/>
</svg>
