<svg width="20" height="20" viewBox="0 0 20 20" fill="none" xmlns="http://www.w3.org/2000/svg">
<rect width="20" height="20" fill="#E5E5E5"/>
<g clip-path="url(#clip0_386_646)">
<rect width="1440" height="1024" transform="translate(-1331 -463)" fill="#FFFCF3"/>
<rect x="-967.5" y="-110.5" width="1044" height="591" rx="15.5" stroke="#3F2305"/>
<mask id="path-2-inside-1_386_646" fill="white">
<path d="M-952 -17H61V37H-952V-17Z"/>
</mask>
<path d="M61 36.5H-952V37.5H61V36.5Z" fill="#232321" fill-opacity="0.2" mask="url(#path-2-inside-1_386_646)"/>
<path d="M2.5 5H4.16667H17.5" stroke="#FF0000" stroke-opacity="0.5" stroke-width="2" stroke-linecap="round" stroke-linejoin="round"/>
<path d="M6.6665 5.00005V3.33338C6.6665 2.89136 6.8421 2.46743 7.15466 2.15487C7.46722 1.84231 7.89114 1.66672 8.33317 1.66672H11.6665C12.1085 1.66672 12.5325 1.84231 12.845 2.15487C13.1576 2.46743 13.3332 2.89136 13.3332 3.33338V5.00005M15.8332 5.00005V16.6667C15.8332 17.1087 15.6576 17.5327 15.345 17.8452C15.0325 18.1578 14.6085 18.3334 14.1665 18.3334H5.83317C5.39114 18.3334 4.96722 18.1578 4.65466 17.8452C4.3421 17.5327 4.1665 17.1087 4.1665 16.6667V5.00005H15.8332Z" stroke="#FF0000" stroke-opacity="0.5" stroke-width="2" stroke-linecap="round" stroke-linejoin="round"/>
<path d="M8.3335 9.16672V14.1667" stroke="#FF0000" stroke-opacity="0.5" stroke-width="2" stroke-linecap="round" stroke-linejoin="round"/>
<path d="M11.6665 9.16672V14.1667" stroke="#FF0000" stroke-opacity="0.5" stroke-width="2" stroke-linecap="round" stroke-linejoin="round"/>
</g>
<defs>
<clipPath id="clip0_386_646">
<rect width="1440" height="1024" fill="white" transform="translate(-1331 -463)"/>
</clipPath>
</defs>
</svg>
