<svg width="20" height="16" viewBox="0 0 20 16" fill="none" xmlns="http://www.w3.org/2000/svg">
<g clip-path="url(#clip0_509_3130)">
<path d="M13 9C13 9.79565 12.6839 10.5587 12.1213 11.1213C11.5587 11.6839 10.7956 12 10 12C9.20435 12 8.44129 11.6839 7.87868 11.1213C7.31607 10.5587 7 9.79565 7 9C7 8.20435 7.31607 7.44129 7.87868 6.87868C8.44129 6.31607 9.20435 6 10 6C10.7956 6 11.5587 6.31607 12.1213 6.87868C12.6839 7.44129 13 8.20435 13 9Z" stroke="black" stroke-opacity="0.5" stroke-width="1.5" stroke-linecap="round" stroke-linejoin="round"/>
<path d="M0 9C1.6 4.903 5.336 2 10 2C14.664 2 18.4 4.903 20 9C18.4 13.097 14.664 16 10 16C5.336 16 1.6 13.097 0 9Z" stroke="black" stroke-opacity="0.5" stroke-width="1.5" stroke-linecap="round" stroke-linejoin="round"/>
</g>
<defs>
<clipPath id="clip0_509_3130">
<rect width="20" height="16" fill="white"/>
</clipPath>
</defs>
</svg>
