<svg width="24" height="25" viewBox="0 0 24 25" fill="none" xmlns="http://www.w3.org/2000/svg">
<path d="M3.5 20.8423H20.4C20.5326 20.8423 20.6598 20.7896 20.7536 20.6958C20.8473 20.6021 20.9 20.4749 20.9 20.3423C20.9 20.2097 20.8473 20.0825 20.7536 19.9887C20.6598 19.895 20.5326 19.8423 20.4 19.8423H3.5C3.36739 19.8423 3.24021 19.895 3.14645 19.9887C3.05268 20.0825 3 20.2097 3 20.3423C3 20.4749 3.05268 20.6021 3.14645 20.6958C3.24021 20.7896 3.36739 20.8423 3.5 20.8423ZM9.662 17.0843C10.0842 16.9655 10.4695 16.7419 10.782 16.4343L20.322 6.89429C20.6487 6.5663 20.8321 6.12222 20.8321 5.65929C20.8321 5.19635 20.6487 4.75227 20.322 4.42429L19.382 3.49429C19.0491 3.177 18.6069 3 18.147 3C17.6871 3 17.2449 3.177 16.912 3.49429L7.372 13.0243C7.06436 13.3352 6.84368 13.7214 6.732 14.1443L5.992 16.9043C5.95721 17.0304 5.95646 17.1634 5.98984 17.2899C6.02321 17.4164 6.08952 17.5318 6.182 17.6243C6.32372 17.7632 6.51359 17.842 6.712 17.8443L9.662 17.0843ZM10.072 15.7243C9.88759 15.9119 9.65621 16.0466 9.402 16.1143L8.432 16.3743L7.432 15.3743L7.692 14.4043C7.76104 14.1506 7.89554 13.9196 8.082 13.7343L8.462 13.3643L10.452 15.3543L10.072 15.7243ZM11.162 14.6443L9.172 12.6543L15.902 5.92429L17.892 7.91429L11.162 14.6443ZM19.612 6.19429L18.602 7.20429L16.612 5.21429L17.622 4.19429C17.7626 4.05384 17.9532 3.97495 18.152 3.97495C18.3508 3.97495 18.5414 4.05384 18.682 4.19429L19.612 5.13429C19.7515 5.27542 19.8297 5.46586 19.8297 5.66429C19.8297 5.86272 19.7515 6.05315 19.612 6.19429Z" fill="black"/>
</svg>
