<svg width="22" height="16" viewBox="0 0 22 16" fill="none" xmlns="http://www.w3.org/2000/svg">
<path d="M14 8.25C14 9.04565 13.6839 9.80871 13.1213 10.3713C12.5587 10.9339 11.7956 11.25 11 11.25C10.2044 11.25 9.44129 10.9339 8.87868 10.3713C8.31607 9.80871 8 9.04565 8 8.25C8 7.45435 8.31607 6.69129 8.87868 6.12868C9.44129 5.56607 10.2044 5.25 11 5.25C11.7956 5.25 12.5587 5.56607 13.1213 6.12868C13.6839 6.69129 14 7.45435 14 8.25Z" stroke="black" stroke-width="1.5" stroke-linecap="round" stroke-linejoin="round"/>
<path d="M1 8.25C2.6 4.153 6.336 1.25 11 1.25C15.664 1.25 19.4 4.153 21 8.25C19.4 12.347 15.664 15.25 11 15.25C6.336 15.25 2.6 12.347 1 8.25Z" stroke="black" stroke-width="1.5" stroke-linecap="round" stroke-linejoin="round"/>
</svg>
