<svg width="22" height="24" viewBox="0 0 22 24" fill="none" xmlns="http://www.w3.org/2000/svg">
<path d="M14.6665 21V19C14.6665 17.1144 14.6665 16.1716 14.0807 15.5858C13.4949 15 12.5521 15 10.6665 15H10.4165C8.53089 15 7.58808 15 7.00229 15.5858C6.4165 16.1716 6.4165 17.1144 6.4165 19V21" stroke="#FFFCF3"/>
<path d="M6.4165 8H10.9998" stroke="#FFFCF3" stroke-linecap="round"/>
<path d="M2.75 9C2.75 6.17157 2.75 4.75736 3.62868 3.87868C4.50736 3 5.92157 3 8.75 3H14.7035C15.137 3 15.3537 3 15.5461 3.08465C15.7385 3.1693 15.885 3.32905 16.1778 3.64855L18.7243 6.42652C18.9841 6.70989 19.1139 6.85158 19.182 7.02646C19.25 7.20134 19.25 7.39355 19.25 7.77797V15C19.25 17.8284 19.25 19.2426 18.3713 20.1213C17.4926 21 16.0784 21 13.25 21H8.75C5.92157 21 4.50736 21 3.62868 20.1213C2.75 19.2426 2.75 17.8284 2.75 15V9Z" stroke="#FFFCF3"/>
</svg>
